<svg xmlns="http://www.w3.org/2000/svg" viewBox="0 0 100 100" width="100" height="100">
  <!-- Background circle -->
  <circle cx="50" cy="50" r="45" fill="#4F46E5" stroke="#4F46E5" stroke-width="2"/>
  
  <!-- Upstage "U" letter -->
  <path d="M25 25 L25 50 Q25 65 40 65 Q55 65 55 50 L55 25 M65 25 L65 50 Q65 65 80 65 Q95 65 95 50 L95 25" 
        fill="none" stroke="white" stroke-width="4" stroke-linecap="round" stroke-linejoin="round"/>
  
  <!-- Solar rays -->
  <g stroke="white" stroke-width="2" stroke-linecap="round">
    <line x1="50" y1="10" x2="50" y2="5"/>
    <line x1="71" y1="15" x2="74" y2="12"/>
    <line x1="85" y1="29" x2="88" y2="26"/>
    <line x1="90" y1="50" x2="95" y2="50"/>
    <line x1="85" y1="71" x2="88" y2="74"/>
    <line x1="71" y1="85" x2="74" y2="88"/>
    <line x1="50" y1="90" x2="50" y2="95"/>
    <line x1="29" y1="85" x2="26" y2="88"/>
    <line x1="15" y1="71" x2="12" y2="74"/>
    <line x1="10" y1="50" x2="5" y2="50"/>
    <line x1="15" y1="29" x2="12" y2="26"/>
    <line x1="29" y1="15" x2="26" y2="12"/>
  </g>
  
  <!-- Text "AI" at bottom -->
  <text x="50" y="80" text-anchor="middle" fill="white" font-size="12" font-family="Arial, sans-serif" font-weight="bold">AI</text>
</svg>
